<?xml version="1.0" encoding="UTF-8"?>
<svg xmlns="http://www.w3.org/2000/svg" xmlns:xlink="http://www.w3.org/1999/xlink" width="32px" height="32px" viewBox="0 0 32 32" version="1.1">
<g id="surface1">
<rect x="0" y="0" width="32" height="32" style="fill:rgb(100%,100%,100%);fill-opacity:1;stroke:none;"/>
<path style=" stroke:none;fill-rule:nonzero;fill:rgb(100%,0.392157%,0.392157%);fill-opacity:1;" d="M 15.167969 0.5 L 15.332031 0.667969 Z M 15.167969 0.5 "/>
<path style=" stroke:none;fill-rule:nonzero;fill:rgb(96.078431%,56.862745%,5.098039%);fill-opacity:1;" d="M 15.335938 0.65625 C 13.804688 1.324219 12.207031 3.476562 11.070312 4.683594 C 8.683594 7.222656 6.101562 9.589844 3.652344 12.070312 C 2.621094 13.117188 0.289062 14.679688 0.523438 16.332031 C 0.71875 17.691406 2.867188 19.226562 3.828125 20.136719 C 6.738281 22.898438 9.558594 25.789062 12.375 28.644531 C 13.40625 29.691406 14.949219 32.027344 16.667969 31.375 C 18.011719 30.863281 19.328125 29.007812 20.332031 28 C 23.105469 25.21875 25.914062 22.46875 28.664062 19.667969 C 29.691406 18.621094 31.867188 17.195312 31.445312 15.5 C 31.128906 14.226562 29.3125 13.058594 28.429688 12.136719 C 25.5625 9.152344 22.589844 6.261719 19.664062 3.335938 C 18.636719 2.308594 17.035156 -0.0859375 15.335938 0.65625 Z M 15.335938 0.65625 "/>
<path style=" stroke:none;fill-rule:nonzero;fill:rgb(100%,0.392157%,0.392157%);fill-opacity:1;" d="M 16.667969 0.5 L 16.832031 0.667969 Z M 16.667969 0.5 "/>
<path style=" stroke:none;fill-rule:nonzero;fill:rgb(92.156863%,37.647059%,0.392157%);fill-opacity:1;" d="M 15 0.667969 L 15.167969 0.832031 L 15 0.667969 M 14.832031 0.832031 L 15 1 L 14.832031 0.832031 M 14.332031 1.332031 L 14.5 1.5 L 14.332031 1.332031 M 13.832031 1.832031 L 14 2 L 13.832031 1.832031 M 13.667969 2 L 13.832031 2.167969 Z M 13.667969 2 "/>
<path style=" stroke:none;fill-rule:nonzero;fill:rgb(100%,0.392157%,0.392157%);fill-opacity:1;" d="M 18.5 2.332031 L 18.667969 2.5 Z M 18.5 2.332031 "/>
<path style=" stroke:none;fill-rule:nonzero;fill:rgb(92.156863%,37.647059%,0.392157%);fill-opacity:1;" d="M 13.167969 2.5 L 13.332031 2.667969 Z M 13.167969 2.5 "/>
<path style=" stroke:none;fill-rule:nonzero;fill:rgb(100%,0.392157%,0.392157%);fill-opacity:1;" d="M 12.832031 2.832031 L 13 3 Z M 12.832031 2.832031 "/>
<path style=" stroke:none;fill-rule:nonzero;fill:rgb(92.156863%,37.647059%,0.392157%);fill-opacity:1;" d="M 12.332031 3.332031 L 12.5 3.5 L 12.332031 3.332031 M 11.332031 4.332031 L 11.5 4.5 L 11.332031 4.332031 M 20.5 4.332031 L 20.667969 4.5 Z M 20.5 4.332031 "/>
<path style=" stroke:none;fill-rule:nonzero;fill:rgb(100%,0.392157%,0.392157%);fill-opacity:1;" d="M 10.832031 4.832031 L 11 5 Z M 10.832031 4.832031 "/>
<path style=" stroke:none;fill-rule:nonzero;fill:rgb(92.156863%,37.647059%,0.392157%);fill-opacity:1;" d="M 10.5 5.167969 L 10.667969 5.332031 L 10.5 5.167969 M 10 5.667969 L 10.167969 5.832031 L 10 5.667969 M 9.832031 5.832031 L 10 6 L 9.832031 5.832031 M 22 5.832031 L 22.167969 6 L 22 5.832031 M 9.332031 6.332031 L 9.5 6.5 L 9.332031 6.332031 M 8.832031 6.832031 L 9 7 Z M 8.832031 6.832031 "/>
<path style=" stroke:none;fill-rule:nonzero;fill:rgb(100%,0.392157%,0.392157%);fill-opacity:1;" d="M 24 7.832031 L 24.167969 8 Z M 24 7.832031 "/>
<path style=" stroke:none;fill-rule:nonzero;fill:rgb(92.156863%,37.647059%,0.392157%);fill-opacity:1;" d="M 6.832031 8.832031 L 7 9 L 6.832031 8.832031 M 6.332031 9.332031 L 6.5 9.5 L 6.332031 9.332031 M 5.832031 9.832031 L 6 10 Z M 5.832031 9.832031 "/>
<path style=" stroke:none;fill-rule:nonzero;fill:rgb(100%,0.392157%,0.392157%);fill-opacity:1;" d="M 26.5 10.332031 L 26.667969 10.5 Z M 26.5 10.332031 "/>
<path style=" stroke:none;fill-rule:nonzero;fill:rgb(100%,100%,0.392157%);fill-opacity:1;" d="M 4.832031 10.832031 L 5 11 Z M 4.832031 10.832031 "/>
<path style=" stroke:none;fill-rule:nonzero;fill:rgb(92.156863%,37.647059%,0.392157%);fill-opacity:1;" d="M 4.667969 11 L 4.832031 11.167969 L 4.667969 11 M 3.832031 11.832031 L 4 12 L 3.832031 11.832031 M 28.5 12.332031 L 28.667969 12.5 L 28.5 12.332031 M 3 12.667969 L 3.167969 12.832031 Z M 3 12.667969 "/>
<path style=" stroke:none;fill-rule:nonzero;fill:rgb(100%,100%,0.392157%);fill-opacity:1;" d="M 2.832031 12.832031 L 3 13 Z M 2.832031 12.832031 "/>
<path style=" stroke:none;fill-rule:nonzero;fill:rgb(92.156863%,37.647059%,0.392157%);fill-opacity:1;" d="M 1.832031 13.832031 L 2 14 L 1.832031 13.832031 M 30 13.832031 L 30.167969 14 L 30 13.832031 M 1.332031 14.332031 L 1.5 14.5 L 1.332031 14.332031 M 0.832031 14.832031 L 1 15 Z M 0.832031 14.832031 "/>
<path style=" stroke:none;fill-rule:nonzero;fill:rgb(100%,0.392157%,0.392157%);fill-opacity:1;" d="M 0.5 15.167969 L 0.667969 15.332031 Z M 0.5 15.167969 "/>
<path style=" stroke:none;fill-rule:nonzero;fill:rgb(92.156863%,37.647059%,0.392157%);fill-opacity:1;" d="M 31 17 L 31.167969 17.167969 Z M 31 17 "/>
<path style=" stroke:none;fill-rule:nonzero;fill:rgb(100%,0.392157%,0.392157%);fill-opacity:1;" d="M 2.332031 18.5 L 2.5 18.667969 Z M 2.332031 18.5 "/>
<path style=" stroke:none;fill-rule:nonzero;fill:rgb(92.156863%,37.647059%,0.392157%);fill-opacity:1;" d="M 29.5 18.5 L 29.667969 18.667969 L 29.5 18.5 M 4.332031 20.5 L 4.5 20.667969 L 4.332031 20.5 M 26.5 21.5 L 26.667969 21.667969 L 26.5 21.5 M 5.832031 22 L 6 22.167969 L 5.832031 22 M 25 23 L 25.167969 23.167969 Z M 25 23 "/>
<path style=" stroke:none;fill-rule:nonzero;fill:rgb(100%,0.392157%,0.392157%);fill-opacity:1;" d="M 7.832031 24 L 8 24.167969 Z M 7.832031 24 "/>
<path style=" stroke:none;fill-rule:nonzero;fill:rgb(92.156863%,37.647059%,0.392157%);fill-opacity:1;" d="M 24 24 L 24.167969 24.167969 L 24 24 M 23 25 L 23.167969 25.167969 L 23 25 M 9 25.167969 L 9.167969 25.332031 L 9 25.167969 M 21.5 26.5 L 21.667969 26.667969 L 21.5 26.5 M 11.832031 28 L 12 28.167969 L 11.832031 28 M 12 28.167969 L 12.167969 28.332031 Z M 12 28.167969 "/>
<path style=" stroke:none;fill-rule:nonzero;fill:rgb(100%,0.392157%,0.392157%);fill-opacity:1;" d="M 12.832031 29 L 13 29.167969 L 12.832031 29 M 13.332031 29.5 L 13.5 29.667969 Z M 13.332031 29.5 "/>
<path style=" stroke:none;fill-rule:nonzero;fill:rgb(92.156863%,37.647059%,0.392157%);fill-opacity:1;" d="M 18.5 29.5 L 18.667969 29.667969 L 18.5 29.5 M 13.5 29.667969 L 13.667969 29.832031 L 13.5 29.667969 M 14.332031 30.5 L 14.5 30.667969 L 14.332031 30.5 M 15.167969 31.332031 L 15.332031 31.5 L 15.167969 31.332031 M 16.667969 31.332031 L 16.832031 31.5 Z M 16.667969 31.332031 "/>
</g>
</svg>
